# xmcd
#
# Track frame offsets:
#	180
#	32109
#	49569
#	65692
#	81459
#	99750
#	122165
#	139781
#	152161
#	168876
#	182683
#	200246
#	216878
#	229548
#	248895
#
# Disc length: 3519 seconds
#
# Revision: 2
# Processed by: cddbd v1.5.2PL0 Copyright (c) Steve Scherf et al.
# Submitted via: audiograbber 1.83.01
#
DISCID=d00dbd0f
DTITLE=Brooks, Garth - SC8162
DYEAR=1900
DGENRE=Karaoke
TTITLE0=Friends In Low Places
TTITLE1=If Tomorrow Never Comes
TTITLE2=What's She Doin' Now
TTITLE3=The Dance
TTITLE4=Shameless
TTITLE5=That Summer
TTITLE6=The Thunder Rolls
TTITLE7=Two Of A Kind, Working On A Full House
TTITLE8=Unanswered Prayer
TTITLE9=Papa Loved Momma
TTITLE10=The River
TTITLE11=The Rodeo
TTITLE12=Not Counting You
TTITLE13=Learning To Live Again
TTITLE14=Somewhere Other Than The Night
EXTD=accurate info
EXTT0=
EXTT1=
EXTT2=
EXTT3=
EXTT4=
EXTT5=
EXTT6=
EXTT7=
EXTT8=
EXTT9=
EXTT10=
EXTT11=
EXTT12=
EXTT13=
EXTT14=
PLAYORDER=
